<?xml version="1.0" encoding="utf-8"?>
<!-- Generator: Adobe Illustrator 20.0.0, SVG Export Plug-In . SVG Version: 6.00 Build 0)  -->
<svg version="1.1" id="Layer_1" xmlns="http://www.w3.org/2000/svg" xmlns:xlink="http://www.w3.org/1999/xlink" x="0px" y="0px"
	 width="91" height="33" viewBox="0 0 91 33">
<style type="text/css">
	.st0{fill:#ffffff;}
</style>
<g>
	<path class="st0" fill-rule="evenodd" clip-rule="evenodd" d="M27.4495 22.999H24.508C23.816 22.999 23.4408 22.4978 23.4408 21.8195V14.3301C23.4408 12.6501 22.4605 11.47 20.7024 11.47C19.2314 11.47 18.1356 12.3251 17.5005 13.475V22.4978C17.5005 22.7632 17.3562 22.94 17.1544 22.9695C17.1255 22.999 17.0678 22.999 17.0392 22.999H13.7804C13.665 22.999 13.5785 22.9695 13.5209 22.9105C13.4054 22.8222 13.3479 22.6748 13.3479 22.4978V3.15606C13.3479 2.23132 13.2388 1.66339 13.1548 1.22599C13.1021 0.952089 13.0593 0.729373 13.0593 0.502282C13.0598 0.206341 13.2036 0 13.5209 0H16.2027C17.0678 0 17.5005 0.412681 17.5005 1.32678V10.2309C18.5097 8.93338 20.0382 7.75392 22.2875 7.75392C25.229 7.75392 27.5947 9.67087 27.5947 13.357V20.2567C27.5947 21.0057 27.6528 21.5566 27.7054 22.0555C27.717 22.1656 27.7283 22.2731 27.7387 22.3798C27.8243 22.7041 27.7088 22.999 27.4495 22.999ZM1.15587 18.9299C1.35767 18.6056 1.61719 18.5761 1.90578 18.7236C2.45347 19.0185 4.27033 19.8736 6.05832 19.8736C7.24049 19.8736 7.90382 19.3428 7.90382 18.6941C7.90382 17.7637 6.92245 17.4642 5.0431 16.8907L4.96252 16.8661C2.13623 15.9817 0.377094 14.6545 0.348235 12.2366C0.348235 9.70083 2.22302 7.75481 6.0006 7.75481C8.30743 7.75481 9.72068 8.52137 10.9317 9.25864C11.2487 9.43548 11.3355 9.67089 11.2201 9.90782L9.95134 11.9719C9.7784 12.237 9.51867 12.2665 9.25936 12.1485C8.5383 11.7063 7.21163 11.2051 5.91403 11.2051C4.41462 11.2051 4.06831 11.8833 4.06831 12.355C4.06831 13.2101 5.16369 13.5345 6.51964 13.9177C10.0088 14.8904 11.8546 16.1583 11.8546 18.6941C11.8546 21.7608 9.20164 23.2351 5.97174 23.2351C3.03023 23.2351 0.953853 21.9966 0.175292 21.4657C0.002348 21.3184 -0.0553701 21.112 0.0600661 20.8465L1.15587 18.9299ZM74.5826 22.527V8.46223C74.5826 8.16758 74.4094 7.96103 74.121 7.96103H70.8907C70.6312 7.96103 70.4292 8.19709 70.4292 8.46223V17.485C69.7661 18.635 68.6991 19.4903 67.2283 19.4903C65.4692 19.4903 64.4888 18.3099 64.4888 16.6299V9.14049C64.4888 8.46223 64.1143 7.96103 63.3935 7.96103H60.4808C60.2213 7.96103 60.106 8.25589 60.1638 8.58026C60.2501 9.16999 60.3367 9.78923 60.3367 10.7033V17.603C60.3367 21.2885 62.7013 23.2055 65.643 23.2055C67.921 23.2055 69.4206 22.026 70.4298 20.7285V22.527C70.4298 22.8219 70.603 22.9987 70.8913 22.9987H74.1499C74.4094 22.9987 74.5826 22.7923 74.5826 22.527ZM90.6975 22.9991H87.7566C87.0646 22.9991 86.6897 22.4979 86.6897 21.8196V14.3302C86.6897 12.6502 85.7091 11.4701 83.9213 11.4701C82.4794 11.4701 81.3834 12.3251 80.7194 13.4751V22.4979C80.7194 22.7632 80.5465 22.9991 80.287 22.9991H77.0282C76.7398 22.9991 76.5669 22.7927 76.5669 22.4979V8.4331C76.5669 8.16796 76.7687 7.9614 76.9994 7.9614H80.287C80.5754 7.9614 80.7194 8.13845 80.7194 8.4331V10.2309C81.7289 8.93344 83.2571 7.75399 85.5355 7.75399C88.448 7.75399 90.8414 9.67093 90.8414 13.3562V20.2568C90.8414 21.1711 90.8991 21.7901 90.9857 22.3798C91.0428 22.7042 90.9282 22.9991 90.6975 22.9991ZM45.0333 25.6011C45.2301 25.4045 45.5148 25.3305 45.7796 25.4072L47.4601 25.8834C47.8065 25.9814 48.0291 26.3108 48.0276 26.6769V26.6836C48.0276 28.2172 49.7002 28.6889 51.9207 28.6889C53.5644 28.6889 55.1505 28.1286 55.1505 26.8607C55.1505 26.3004 54.862 25.7697 53.6798 25.5632L51.8206 25.2401H51.8147L51.4631 25.1789C49.7889 24.8834 47.9415 24.4834 46.9662 24.2659C46.6896 24.197 46.4172 24.112 46.1501 24.0113C44.934 23.5441 44.1068 22.77 44.1068 21.4652C44.1068 19.755 45.5487 18.6936 47.077 18.8707C46.4425 18.2521 45.1449 16.9246 45.0872 14.4182C45.0295 10.6739 47.7692 7.78427 51.9794 7.78427C52.6752 7.78427 53.2669 7.85911 53.9038 7.93967C55.0094 8.07949 56.2513 8.23657 58.4103 8.04963C58.6697 8.02012 58.9005 8.22646 58.8717 8.52133L58.7562 10.2905C58.4679 10.5854 57.6027 10.6739 56.7087 10.7034C57.9775 11.6755 58.6408 13.1801 58.6408 14.9493C58.6408 18.694 55.6706 21.1415 52.0083 21.112C50.8044 21.112 49.9933 20.7998 49.328 20.5438L49.3275 20.5436C49.2281 20.5053 49.1319 20.4683 49.0381 20.4337C47.8848 20.1096 47.4808 20.5518 47.4808 21.0235C47.4808 21.6805 48.3477 21.8108 49.6604 22.0081L49.7887 22.0274L54.2007 22.6761C57.6324 23.2068 59.5356 24.1797 59.5356 26.863C59.5356 30.7848 55.7003 32.2589 51.4901 32.1999C47.4515 32.1699 44.1654 30.6958 44.1654 27.806C44.1654 26.8439 44.5132 26.1281 45.0333 25.6011ZM51.8358 11.3521C53.5086 11.3521 54.8349 12.5611 54.8349 14.4481C54.8349 16.1878 53.6815 17.4851 51.8935 17.4851C50.1344 17.4851 48.8368 16.2173 48.8368 14.3891C48.8368 12.5021 50.221 11.3521 51.8358 11.3521ZM36.3968 7.61081C32.0241 7.61081 28.5778 10.7494 28.5778 15.3981C28.5778 20.0173 32.0241 23.1559 36.3968 23.1559C40.7406 23.1559 44.1866 20.0173 44.1866 15.3981C44.1866 10.7494 40.7406 7.61081 36.3968 7.61081ZM40.3638 15.3982C40.3638 12.9999 38.7133 11.2232 36.3966 11.2232C34.0508 11.2232 32.4001 12.9999 32.4001 15.3982C32.4001 17.7966 34.0508 19.5436 36.3966 19.5436C38.7133 19.5436 40.3638 17.7966 40.3638 15.3982ZM43.5202 3.18182C43.6828 4.10039 43.0862 4.97975 42.1879 5.14593V5.14572C40.204 5.51274 38.2525 5.63529 36.5328 5.63551C33.1921 5.63551 30.7228 5.1735 30.5688 5.144C29.6714 4.97228 29.0801 4.08926 29.2481 3.1717C29.416 2.25414 30.2796 1.64951 31.177 1.82122C31.2678 1.83824 36.3984 2.78185 41.5993 1.8195C42.4977 1.65332 43.3577 2.26325 43.5202 3.18182Z"/>
</g>
</svg>
