<svg width="24" height="25" viewBox="0 0 24 25" fill="none" xmlns="http://www.w3.org/2000/svg">
<g clip-path="url(#clip0_1175_851)">
<path d="M18.5808 0.875305H5.41922C2.42627 0.875305 0 3.30157 0 6.29452V19.3455C0 22.3384 2.42627 24.7647 5.41922 24.7647H18.5808C21.5737 24.7647 24 22.3384 24 19.3455V6.29452C24 3.30157 21.5737 0.875305 18.5808 0.875305Z" fill="#1A212A"/>
<path d="M15.1753 7.82922H16.8684L13.1695 12.0573L17.5209 17.8103H14.1135L11.4449 14.3214L8.39103 17.8103H6.69697L10.6532 13.2883L6.479 7.82922H9.9726L12.3848 11.0186L15.1753 7.82922ZM14.5809 16.7969H15.5193L9.46307 8.78969H8.45619L14.5809 16.7969Z" fill="white"/>
</g>
<defs>
<clipPath id="clip0_1175_851">
<rect width="24" height="23.8894" fill="white" transform="translate(0 0.875305)"/>
</clipPath>
</defs>
</svg>
